<?xml version="1.0" encoding="utf-8"?>
<!-- Generator: Adobe Illustrator 22.0.1, SVG Export Plug-In . SVG Version: 6.00 Build 0)  -->
<svg version="1.1" id="Capa_1" xmlns="http://www.w3.org/2000/svg" xmlns:xlink="http://www.w3.org/1999/xlink" x="0px" y="0px"
	 viewBox="0 0 22.3 23.4" style="enable-background:new 0 0 22.3 23.4;" xml:space="preserve">
<style type="text/css">
	.st0{fill:#EFEFEF;}
	.st1{fill:none;stroke:#EFEFEF;stroke-miterlimit:10;}
</style>
<title>Mesa de trabajo 19</title>
<g id="Capa_1_1_">
	<path class="st0" d="M9,23.2c-3,0-5.9-1.1-8.3-3c-0.4-0.2-0.6-0.7-0.4-1.2s0.7-0.6,1.2-0.4c0.1,0.1,0.2,0.2,0.3,0.3
		c4.8,4,11.8,3.3,15.8-1.5s3.3-11.8-1.5-15.8c-0.4-0.3-0.4-0.9-0.1-1.2c0,0,0,0,0,0c0.3-0.4,0.8-0.4,1.2-0.1c0,0,0,0,0,0
		c5.5,4.6,6.3,12.7,1.7,18.2C16.5,21.5,12.8,23.2,9,23.2z"/>
	<circle class="st1" cx="9.5" cy="4.7" r="3"/>
</g>
</svg>
