<?xml version="1.0" standalone="no"?>
<!DOCTYPE svg PUBLIC "-//W3C//DTD SVG 20010904//EN"
 "http://www.w3.org/TR/2001/REC-SVG-20010904/DTD/svg10.dtd">
<svg version="1.0" xmlns="http://www.w3.org/2000/svg"
 width="260.000000pt" height="260.000000pt" viewBox="0 0 260.000000 260.000000"
 preserveAspectRatio="xMidYMid meet">
<metadata>
Created by potrace 1.11, written by Peter Selinger 2001-2013
</metadata>
<g transform="translate(0.000000,260.000000) scale(0.100000,-0.100000)"
fill="#000000" stroke="none">
<path d="M1190 2223 c0 -400 -3 -423 -67 -545 -49 -94 -122 -158 -287 -252
l-136 -79 162 -94 c90 -53 168 -97 175 -100 18 -7 313 166 364 214 26 24 60
69 77 102 57 106 62 148 62 547 0 428 -6 540 -29 550 -9 3 -85 9 -168 12
l-153 5 0 -360z"/>
<path d="M980 2540 c-444 -114 -803 -474 -916 -918 -130 -512 58 -1041 481
-1355 115 -85 295 -170 440 -209 113 -29 131 -31 305 -32 142 -1 204 3 267 17
262 56 464 166 654 356 248 248 372 549 372 901 0 339 -121 643 -351 882 -77
80 -179 168 -195 168 -4 0 -7 -123 -7 -272 0 -311 -11 -403 -65 -565 -41 -123
-79 -201 -153 -312 -65 -99 -224 -268 -325 -345 -62 -47 -384 -241 -430 -259
-9 -3 -107 47 -244 127 l-228 132 0 259 0 260 175 101 c187 108 248 158 292
240 54 99 58 138 58 511 0 189 -3 343 -7 343 -5 -1 -60 -14 -123 -30z"/>
<path d="M1620 2087 c0 -419 -2 -460 -20 -531 -44 -174 -114 -251 -348 -386
l-162 -93 0 -184 c0 -181 0 -184 20 -173 76 41 256 150 310 188 200 141 397
407 469 632 50 155 53 190 58 537 l5 332 -79 39 c-69 35 -221 92 -244 92 -5 0
-9 -197 -9 -453z"/>
<path d="M662 1088 l3 -183 169 -98 c93 -53 170 -96 171 -95 1 2 0 85 -3 185
l-4 182 -165 96 c-91 52 -167 95 -169 95 -3 0 -3 -82 -2 -182z"/>
</g>
</svg>
