<?xml version="1.0" standalone="no"?>
<!DOCTYPE svg PUBLIC "-//W3C//DTD SVG 20010904//EN"
 "http://www.w3.org/TR/2001/REC-SVG-20010904/DTD/svg10.dtd">
<svg version="1.0" xmlns="http://www.w3.org/2000/svg"
 width="260.000000pt" height="260.000000pt" viewBox="0 0 260.000000 260.000000"
 preserveAspectRatio="xMidYMid meet">
<metadata>
Created by potrace 1.11, written by Peter Selinger 2001-2013
</metadata>
<g transform="translate(0.000000,260.000000) scale(0.100000,-0.100000)"
fill="#000000" stroke="none">
<path d="M1478 2531 c-29 -15 -69 -37 -88 -48 -19 -12 -72 -42 -117 -68 -46
-26 -84 -52 -85 -59 -1 -6 -2 -326 -2 -711 l-1 -700 -33 -67 c-40 -83 -76
-113 -231 -201 -66 -38 -124 -73 -127 -79 -8 -12 -6 -376 1 -388 7 -12 266
-162 283 -164 19 -3 230 117 318 179 225 161 385 416 422 675 4 25 7 368 6
762 0 534 -4 720 -12 731 -11 12 -80 54 -239 143 l-41 24 -54 -29z m141 -111
c44 -25 81 -47 81 -50 0 -8 -219 -132 -228 -128 -33 14 -162 91 -162 96 0 4
23 21 52 37 29 17 77 44 108 62 30 18 58 31 62 30 3 -1 42 -22 87 -47z m129
-797 c0 -628 -1 -684 -18 -765 -57 -263 -235 -494 -495 -642 -27 -16 -65 -37
-82 -48 l-33 -20 0 129 0 129 120 69 c66 37 140 89 164 113 47 47 88 120 105
187 7 25 10 277 8 713 -1 440 1 677 8 682 9 7 218 130 221 130 1 0 2 -305 2
-677z m-377 583 l67 -39 0 -66 c0 -36 0 -336 2 -667 1 -439 -1 -612 -10 -645
-30 -109 -76 -159 -232 -248 -59 -33 -111 -61 -117 -61 -7 0 -157 84 -169 95
-2 2 45 31 104 66 62 37 123 83 147 109 41 47 82 127 93 182 3 18 6 327 5 687
l-1 653 23 -14 c12 -8 52 -31 88 -52z m-411 -1752 c47 -27 80 -53 81 -62 6
-100 3 -232 -6 -232 -5 1 -46 22 -90 48 l-79 47 -1 123 c0 67 4 122 8 122 4 0
44 -21 87 -46z"/>
</g>
</svg>
