<?xml version="1.0" standalone="no"?>
<!DOCTYPE svg PUBLIC "-//W3C//DTD SVG 20010904//EN"
 "http://www.w3.org/TR/2001/REC-SVG-20010904/DTD/svg10.dtd">
<svg version="1.0" xmlns="http://www.w3.org/2000/svg"
 width="260.000000pt" height="260.000000pt" viewBox="0 0 260.000000 260.000000"
 preserveAspectRatio="xMidYMid meet">
<metadata>
Created by potrace 1.11, written by Peter Selinger 2001-2013
</metadata>
<g transform="translate(0.000000,260.000000) scale(0.100000,-0.100000)"
fill="#000000" stroke="none">
<path d="M1771 2343 c2 -222 -1 -265 -16 -307 -33 -94 -95 -171 -173 -213 -77
-42 -237 -137 -242 -145 -3 -4 -5 -98 -5 -209 l0 -202 185 -108 c102 -60 188
-108 192 -109 14 0 303 171 357 213 194 147 354 376 409 587 34 125 35 145 37
453 l1 297 -25 0 -26 0 -1 -293 c0 -192 -5 -313 -13 -352 -29 -141 -84 -271
-163 -387 -52 -78 -174 -206 -249 -262 -52 -39 -280 -176 -294 -176 -3 0 -5
71 -5 158 l0 158 132 74 c191 108 255 179 292 325 11 41 14 130 12 402 l-1
348 -26 3 -25 3 1 -348 c2 -356 -2 -399 -40 -479 -27 -58 -107 -132 -200 -185
-49 -29 -109 -63 -131 -76 l-42 -24 -133 77 c-74 42 -140 82 -147 89 -11 10 9
25 101 78 63 37 135 85 160 108 56 48 113 158 125 239 6 41 8 459 3 513 -1 4
-12 7 -26 7 l-25 0 1 -257z m-239 -809 c73 -42 138 -80 144 -85 11 -9 16 -319
5 -319 -3 0 -71 38 -151 84 l-145 84 0 156 c0 86 3 156 7 156 4 0 67 -34 140
-76z"/>
<path d="M865 1508 c-95 -49 -276 -160 -326 -199 -175 -138 -319 -337 -388
-539 -44 -126 -53 -202 -57 -492 l-5 -278 25 0 c14 0 26 3 27 8 0 4 2 122 4
262 1 140 6 278 10 305 20 138 88 307 176 436 52 77 174 206 249 264 60 46
319 197 330 193 24 -10 220 -124 220 -128 0 -3 -37 -25 -82 -50 -150 -82 -230
-141 -328 -238 -164 -164 -257 -321 -310 -522 -25 -93 -31 -165 -33 -363 l-2
-167 35 0 35 0 0 152 c0 200 10 297 41 405 82 283 284 519 579 678 39 20 74
41 80 46 5 5 12 9 16 9 4 0 6 -71 5 -157 l-3 -158 -69 -38 c-221 -124 -269
-164 -319 -272 -44 -94 -51 -150 -50 -425 l0 -235 25 -3 25 -3 1 259 c2 278 9
331 60 417 38 65 81 99 234 187 l145 83 0 205 0 205 -150 87 c-82 47 -152 86
-155 87 -3 0 -23 -9 -45 -21z"/>
</g>
</svg>
