<?xml version="1.0" standalone="no"?>
<!DOCTYPE svg PUBLIC "-//W3C//DTD SVG 20010904//EN"
 "http://www.w3.org/TR/2001/REC-SVG-20010904/DTD/svg10.dtd">
<svg version="1.0" xmlns="http://www.w3.org/2000/svg"
 width="260.000000pt" height="260.000000pt" viewBox="0 0 260.000000 260.000000"
 preserveAspectRatio="xMidYMid meet">
<metadata>
Created by potrace 1.11, written by Peter Selinger 2001-2013
</metadata>
<g transform="translate(0.000000,260.000000) scale(0.100000,-0.100000)"
fill="#000000" stroke="none">
<path d="M1188 2565 c-2 -2 -23 -6 -48 -8 -482 -56 -912 -425 -1049 -902 -47
-161 -62 -360 -40 -530 39 -304 228 -634 469 -818 30 -23 57 -44 60 -48 13
-14 136 -83 206 -115 169 -77 351 -113 544 -108 147 4 136 3 225 20 98 18 215
59 320 111 721 359 926 1299 421 1928 -82 102 -234 235 -336 294 -113 66 -271
128 -380 150 -30 6 -68 13 -85 17 -31 6 -302 14 -307 9z"/>
</g>
</svg>
